<svg xmlns="http://www.w3.org/2000/svg" version="1.1" xmlns:xlink="http://www.w3.org/1999/xlink" xmlns:svgjs="http://svgjs.com/svgjs" width="110" height="110"><svg xmlns:xlink="http://www.w3.org/1999/xlink" xmlns="http://www.w3.org/2000/svg" class="css-ze2te4 css-qd6ojx" viewBox="0 0 92.10526315789474 95.63489977566715" width="110" height="110"><g transform="translate(-5.140906367686656, -3.3764395804423377) scale(1.0238809921182555)" class="css-1dqsp7h" fill="#93CDFD"><path xmlns="http://www.w3.org/2000/svg" d="M68.84,60.533c0.076,2.981,0.114,6.083,0.114,9.313c0,5.141-5.936,9.197-13.67,9.5c-0.473,3.237-3.26,5.735-6.627,5.735  c-3.37,0-6.159-2.502-6.628-5.743c-6.134-0.38-10.984-4.486-10.984-9.492c0-2.465,0.556-5.571,1.404-9.558  C15.981,63.276,5.021,70.204,5.021,77.733c0,10.459,20.178,18.969,44.979,18.969c24.801,0,44.978-8.51,44.978-18.969  C94.979,70.48,84.525,63.641,68.84,60.533z" fill="#93CDFD"></path><path xmlns="http://www.w3.org/2000/svg" d="M43.952,78.375c0,2.595,2.111,4.706,4.705,4.706c2.595,0,4.705-2.111,4.705-4.706s-2.11-4.705-4.705-4.705  C46.063,73.67,43.952,75.78,43.952,78.375z" fill="#93CDFD"></path><path xmlns="http://www.w3.org/2000/svg" d="M66.954,69.846c0-21.581-1.365-51.52-13.173-62.317c-3.342-3.056-7.277-4.431-12.013-4.208  c-0.095,24.441-3.928,41.787-6.475,53.313c-1.256,5.688-2.249,10.18-2.249,13.212c0,3.918,3.959,7.143,8.996,7.494  c0.5-3.206,3.272-5.67,6.617-5.67c3.347,0,6.121,2.468,6.618,5.678C61.792,77.065,66.954,73.813,66.954,69.846z" fill="#93CDFD"></path></g></svg><style>@media (prefers-color-scheme: light) { :root { filter: contrast(1) brightness(0.6); } }
</style></svg>